# xmcd CD database file
#
# Track frame offsets:
#	150
#	23730
#	40777
#	66500
#	93720
#	123420
#	145665
#	166907
#	194890
#	215475
#
# Disc length: 3196 seconds
#
# Revision: 16
# Processed by: cddbd v1.4PL0 Copyright (c) Steve Scherf et al.
# Submitted via: Feurio! 1.66.4ß - http://www.feurio.com
#
DISCID=950c7a0a
DTITLE=Don Henley - The End of The Innocence (Dolby Digital 5.1)
DYEAR=1989
DGENRE=Pop
TTITLE0=The End of The Innocence
TTITLE1=How Bad Do You Want It?
TTITLE2=I Will Not Go Quietly
TTITLE3=The Last Worthless Evening
TTITLE4=New York Minute
TTITLE5=Shangri-La
TTITLE6=Little Tin God
TTITLE7=Gimme What You Got
TTITLE8=If Dirt Were Dollars
TTITLE9=The Heart of the Matter
EXTD=hn
EXTT0=
EXTT1=
EXTT2=
EXTT3=
EXTT4=
EXTT5=
EXTT6=
EXTT7=
EXTT8=
EXTT9=
PLAYORDER=
